<svg width="23" height="24" viewBox="0 0 23 24" fill="none" xmlns="http://www.w3.org/2000/svg">
<path d="M0.00373908 4.3077C-0.00124636 9.74252 -0.00124636 15.308 0.00373908 20.8483C0.00498544 22.2571 1.02014 23.28 2.41794 23.2806C8.50266 23.2851 14.6129 23.2851 20.5805 23.2806C21.9802 23.2794 22.9959 22.2438 22.9972 20.818C23.0009 15.3889 23.0009 9.84544 22.9972 4.3399C22.9959 2.89453 21.9895 1.88107 20.5493 1.87412C20.3294 1.87286 20.1094 1.87349 19.8788 1.87412H19.0631V0.00568298H18.1227V1.85139H4.85644V0H3.92665V1.87475H2.78686C2.66409 1.87412 2.5432 1.87475 2.4223 1.87475C1.02264 1.88485 0.00560862 2.90779 0.00373908 4.3077ZM22.0618 20.6734C22.0618 21.7904 21.5271 22.3335 20.4266 22.3335H11.5002H2.57373C1.4732 22.3335 0.937885 21.7904 0.937885 20.674V12.0782V7.96185H22.0618V20.6734ZM0.94474 4.21993C0.961566 3.43883 1.52056 2.86675 2.30327 2.82823C2.50207 2.81876 2.69837 2.82002 2.88781 2.82191H2.89654C2.97568 2.82255 3.05545 2.82381 3.13459 2.82318H3.33027H3.91606V4.69793H4.85644V2.84654H18.1233V4.69225H19.0637V2.83707H19.5311C19.6638 2.83707 19.7972 2.83391 19.9255 2.83139C20.2421 2.82444 20.5363 2.81749 20.8441 2.8478C21.5271 2.91474 22.0356 3.47861 22.0531 4.18835C22.0662 4.72508 22.0637 5.27128 22.0606 5.79979V5.81495C22.0593 6.03911 22.0581 6.26517 22.0581 6.49249V6.96607H0.940378V6.49249C0.940378 6.26075 0.939132 6.03153 0.937885 5.80358C0.935393 5.26054 0.9329 4.74718 0.944117 4.21993H0.94474Z" fill="white"/>
<path d="M19.0776 10.6989H17.8445V11.9182H19.0776V10.6989Z" fill="white"/>
<path d="M15.6024 10.6989H14.3693V11.9182H15.6024V10.6989Z" fill="white"/>
<path d="M12.1276 10.6989H10.8945V11.9182H12.1276V10.6989Z" fill="white"/>
<path d="M8.65236 10.6989H7.41925V11.9182H8.65236V10.6989Z" fill="white"/>
<path d="M5.17708 10.6989H3.94397V11.9182H5.17708V10.6989Z" fill="white"/>
<path d="M19.0776 14.2963H17.8445V15.5155H19.0776V14.2963Z" fill="white"/>
<path d="M15.6024 14.2963H14.3693V15.5155H15.6024V14.2963Z" fill="white"/>
<path d="M12.1276 14.2963H10.8945V15.5155H12.1276V14.2963Z" fill="white"/>
<path d="M8.65236 14.2963H7.41925V15.5155H8.65236V14.2963Z" fill="white"/>
<path d="M5.17708 14.2963H3.94397V15.5155H5.17708V14.2963Z" fill="white"/>
<path d="M15.6024 17.893H14.3693V19.1123H15.6024V17.893Z" fill="white"/>
<path d="M12.1276 17.893H10.8945V19.1123H12.1276V17.893Z" fill="white"/>
<path d="M8.65236 17.893H7.41925V19.1123H8.65236V17.893Z" fill="white"/>
<path d="M5.17708 17.893H3.94397V19.1123H5.17708V17.893Z" fill="white"/>
</svg>
