<svg width="12" height="22" viewBox="0 0 12 22" fill="none" xmlns="http://www.w3.org/2000/svg">
<path fill-rule="evenodd" clip-rule="evenodd" d="M0.758818 1.07181C0.831389 0.999052 0.917601 0.941329 1.01252 0.901943C1.10743 0.862558 1.20918 0.842285 1.31194 0.842285C1.4147 0.842285 1.51646 0.862558 1.61137 0.901943C1.70628 0.941329 1.7925 0.999052 1.86507 1.07181L11.2401 10.4468C11.3128 10.5194 11.3705 10.6056 11.4099 10.7005C11.4493 10.7954 11.4696 10.8972 11.4696 10.9999C11.4696 11.1027 11.4493 11.2044 11.4099 11.2994C11.3705 11.3943 11.3128 11.4805 11.2401 11.5531L1.86507 20.9281C1.71837 21.0748 1.51941 21.1572 1.31194 21.1572C1.10448 21.1572 0.905516 21.0748 0.758818 20.9281C0.61212 20.7814 0.529706 20.5824 0.529706 20.3749C0.529706 20.1675 0.61212 19.9685 0.758818 19.8218L9.58226 10.9999L0.758818 2.17806C0.686063 2.10549 0.628339 2.01927 0.588954 1.92436C0.549569 1.82945 0.529297 1.72769 0.529297 1.62493C0.529297 1.52217 0.549569 1.42042 0.588954 1.3255C0.628339 1.23059 0.686063 1.14438 0.758818 1.07181Z" fill="black"/>
</svg>
