<svg xmlns="http://www.w3.org/2000/svg" version="1.1" xmlns:xlink="http://www.w3.org/1999/xlink" width="512" height="512" x="0" y="0" viewBox="0 0 24 24" style="enable-background:new 0 0 512 512" xml:space="preserve" class=""><g><path d="M12 24C5.383 24 0 18.617 0 12S5.383 0 12 0s12 5.383 12 12-5.383 12-12 12zm0-23C5.935 1 1 5.935 1 12s4.935 11 11 11 11-4.935 11-11S18.065 1 12 1z" fill="#ffffff" opacity="1" data-original="#000000" class=""></path><path d="M12 19a.5.5 0 0 1-.5-.5v-13a.5.5 0 0 1 1 0v13a.5.5 0 0 1-.5.5z" fill="#ffffff" opacity="1" data-original="#000000" class=""></path><path d="M12 19a.502.502 0 0 1-.354-.146l-4-4a.5.5 0 0 1 .707-.707L12 17.793l3.646-3.646a.5.5 0 0 1 .707.707l-4 4A.498.498 0 0 1 12 19z" fill="#ffffff" opacity="1" data-original="#000000" class=""></path></g></svg>