<?xml version="1.0" encoding="utf-8"?>
<!-- Generator: Adobe Illustrator 27.3.1, SVG Export Plug-In . SVG Version: 6.00 Build 0)  -->
<svg version="1.1" id="Layer_1" xmlns="http://www.w3.org/2000/svg" xmlns:xlink="http://www.w3.org/1999/xlink" x="0px" y="0px"
	 viewBox="0 0 1080 1080" style="enable-background:new 0 0 1080 1080;" xml:space="preserve">
<style type="text/css">
	.st0{fill:#231F20;}
</style>
<g>
	<g>
		<path class="st0" d="M782.77,529.53c34.54-48.61,54.93-107.94,54.93-171.98s-20.39-123.37-54.93-171.98v-17.24h-13.1
			C715.02,102.12,632.36,59.85,540,59.85s-175.02,42.28-229.67,108.49h-13.1v17.23c-34.54,48.61-54.93,107.94-54.93,171.98
			s20.39,123.37,54.93,171.98v124.35h214.6c9.28,0.88,18.67,1.37,28.17,1.37c9.5,0,18.89-0.49,28.17-1.37h214.61V529.53z
			 M820.55,357.55c0,51.11-13.8,99.02-37.78,140.34V217.22C806.75,258.53,820.55,306.44,820.55,357.55z M318.8,185.29h2.95
			l193.62,106.95h-201.2V191.32C315.68,189.28,317.25,187.28,318.8,185.29z M765.82,191.32v100.92H561.98L755.6,185.29h5.6
			C762.75,187.28,764.32,189.28,765.82,191.32z M547.01,281.46v-96.18h174.12L547.01,281.46z M530.34,281.46l-174.12-96.18h174.12
			V281.46z M314.18,308.9h210.91L423.63,612.73c-43.61-19.97-81.26-50.74-109.46-88.94V308.9z M530.34,345.78v291.15h-15.29
			c-26.57-2.35-52.08-8.43-76.02-17.7L530.34,345.78z M547.01,636.93V345.78l91.62,274.37c-23.26,8.77-47.98,14.5-73.69,16.78
			H547.01z M654.07,613.77L552.27,308.9h213.55v214.88C737.13,562.66,698.65,593.84,654.07,613.77z M540,77
			c81.85,0,155.61,35.25,206.94,91.34H333.06C384.39,112.24,458.15,77,540,77z M259.45,357.55c0-51.11,13.8-99.02,37.78-140.34
			v280.68C273.25,456.58,259.45,408.66,259.45,357.55z M314.18,636.93v-85.72c32.77,38.15,74.96,67.99,122.99,85.72H314.18z
			 M642.83,636.93c48.04-17.74,90.23-47.57,123-85.72v85.72H642.83z"/>
	</g>
	<g>
		<rect x="340.89" y="736.65" class="st0" width="15.38" height="78.45"/>
		<polygon class="st0" points="399.9,772.92 399.81,770.39 440.2,815.11 444.64,815.11 444.64,736.65 429.26,736.65 429.26,778.96 
			429.4,781.78 388.86,736.55 384.52,736.55 384.52,815.11 399.9,815.11 		"/>
		<path class="st0" d="M485.24,816.12c6.06,0,11.06-1.92,14.85-5.7s5.7-9.8,5.7-17.88v-55.88H490.5v53.04
			c0,3.41-0.29,6.03-0.86,7.77c-0.48,1.47-1.15,2.45-1.98,2.93c-0.96,0.56-2.33,0.84-4.05,0.84c-1.91,0-3.52-0.29-4.76-0.88
			s-2.39-1.48-3.41-2.67l-2.1-2.45l-6.44,14.75l1.13,0.98c2.19,1.89,4.93,3.25,8.13,4.03C479.2,815.74,482.26,816.12,485.24,816.12z
			"/>
		<path class="st0" d="M561.05,816.12c9.46,0,16.69-3.1,21.49-9.23c4.68-5.97,7.06-14.58,7.06-25.59v-44.64h-15.48v44.84
			c0,7.57-1.05,12.92-3.13,15.9c-1.94,2.79-5.19,4.15-9.93,4.15c-4.74,0-8-1.39-9.98-4.24c-2.11-3.05-3.18-8.36-3.18-15.8v-44.84
			h-15.38v44.64c0,11.06,2.25,19.68,6.68,25.61C543.75,813.02,551.11,816.12,561.05,816.12z"/>
		<path class="st0" d="M630.7,787.17h0.81c2.15,0,4.54-0.05,7.12-0.15l14.95,28.09h17.79l-18.37-31.7c3.95-2.04,7.04-4.77,9.22-8.15
			c2.53-3.92,3.81-8.64,3.81-14c0-8.66-3.11-15.04-9.23-18.96c-5.84-3.74-13.33-5.63-22.25-5.63h-18.92v78.45h15.08V787.17z
			 M630.7,750.12h4.76c14.06,0,15.69,6.41,15.69,11.23c0,3.52-1.05,6.45-3.21,8.96c-2.05,2.39-6.11,3.59-12.07,3.59h-5.16V750.12z"
			/>
		<polygon class="st0" points="708.84,815.11 724.23,815.11 724.23,779.16 751.63,736.65 733.31,736.65 716.53,764.15 
			699.75,736.65 681.32,736.65 708.84,778.96 		"/>
		<path class="st0" d="M200.84,858.13h-18.42v78.45h15.49v-27.53h1.92c9.66,0,17.1-2.32,22.12-6.91c5.07-4.63,7.65-11.3,7.65-19.82
			c0-7.44-2.38-13.41-7.08-17.73C217.87,860.3,210.57,858.13,200.84,858.13z M211.08,891.7c-1.95,2.17-5.63,3.27-10.94,3.27h-2.23
			V872.1h3.24c4.78,0,8.16,1.04,10.04,3.09c1.96,2.13,2.91,4.86,2.91,8.35C214.11,886.76,213.12,889.43,211.08,891.7z"/>
		<path class="st0" d="M288.63,904.88c3.95-2.04,7.04-4.78,9.22-8.15c2.53-3.92,3.81-8.64,3.81-14c0-8.66-3.11-15.04-9.23-18.96
			c-5.84-3.74-13.32-5.63-22.25-5.63h-18.92v78.45h15.08v-27.94h0.81c2.18,0,4.57-0.05,7.11-0.15l14.95,28.09h17.79L288.63,904.88z
			 M283.58,891.78c-2.05,2.39-6.11,3.6-12.07,3.6h-5.17v-23.79h4.76c14.07,0,15.69,6.41,15.69,11.23
			C286.79,886.34,285.74,889.27,283.58,891.78z"/>
		<polygon class="st0" points="368.07,922.51 343.37,922.51 343.37,902.77 360.58,902.77 360.58,888.6 343.37,888.6 343.37,872.1 
			364.73,872.1 364.73,858.13 328.08,858.13 328.08,936.57 368.07,936.57 		"/>
		<polygon class="st0" points="418.28,906.21 397.33,858.13 379.99,858.13 416.28,936.57 420.39,936.57 456.57,858.13 
			439.32,858.13 		"/>
		<polygon class="st0" points="512.72,922.51 488.02,922.51 488.02,902.77 505.23,902.77 505.23,888.6 488.02,888.6 488.02,872.1 
			509.38,872.1 509.38,858.13 472.73,858.13 472.73,936.57 512.72,936.57 		"/>
		<polygon class="st0" points="595.42,936.57 595.42,858.13 580.03,858.13 580.04,900.43 580.17,903.25 539.64,858.02 
			535.29,858.02 535.29,936.57 550.68,936.57 550.68,894.39 550.58,891.86 590.98,936.57 		"/>
		<polygon class="st0" points="651.8,936.57 651.8,872.1 671.04,872.1 671.04,858.13 617.49,858.13 617.49,872.1 636.52,872.1 
			636.52,936.57 		"/>
		<rect x="694.42" y="858.13" class="st0" width="15.39" height="78.45"/>
		<path class="st0" d="M793.93,861.81c-5.98-3.25-12.59-4.9-19.64-4.9c-7.05,0-13.66,1.65-19.64,4.9c-6,3.28-10.85,8.01-14.4,14.07
			c-3.54,6.06-5.34,13.23-5.34,21.32c0,8.02,1.79,15.17,5.34,21.26c3.54,6.09,8.39,10.86,14.39,14.17v0
			c5.98,3.29,12.59,4.95,19.65,4.95c7.06,0,13.68-1.67,19.65-4.96c6-3.3,10.84-8.07,14.4-14.17c3.54-6.1,5.33-13.25,5.33-21.26
			c0-8.08-1.79-15.25-5.34-21.32C804.78,869.82,799.93,865.09,793.93,861.81z M794.42,911.48c-2.07,3.86-4.89,6.83-8.38,8.81l0,0
			c-3.51,2.01-7.47,3.02-11.75,3.02c-4.15,0-8.05-1.02-11.61-3.03c-3.52-1.99-6.38-4.96-8.48-8.82c-2.12-3.89-3.2-8.66-3.2-14.16
			c0-5.58,1.04-10.39,3.11-14.29c2.03-3.84,4.83-6.78,8.31-8.75c3.52-1.98,7.51-2.98,11.86-2.98c4.35,0,8.32,1,11.81,2.97
			c3.46,1.96,6.26,4.91,8.32,8.76c2.09,3.9,3.15,8.71,3.15,14.28C797.57,902.81,796.51,907.58,794.42,911.48z"/>
		<polygon class="st0" points="882.19,858.13 882.19,900.43 882.33,903.25 841.79,858.02 837.45,858.02 837.45,936.57 
			852.83,936.57 852.83,894.39 852.74,891.86 893.13,936.57 897.57,936.57 897.57,858.13 		"/>
		<polygon class="st0" points="490.33,985.18 482.54,985.18 482.54,1035.78 504.85,1035.78 504.85,1028.89 490.33,1028.89 		"/>
		<path class="st0" d="M536.92,985.12l-24.23,50.66h8.6l4.34-9.91h23.19l4.34,9.91h8.88l-24.37-50.66H536.92z M545.8,1018.91h-17.07
			l5.51-12.25l3.03-6.88h0.13l2.96,6.95L545.8,1018.91z"/>
		<path class="st0" d="M597.77,1008.73c2.2-1.01,3.81-2.53,4.82-4.58c1-2.04,1.51-4.21,1.51-6.5c0-3.44-1.19-6.38-3.57-8.81
			c-2.39-2.43-7.21-3.65-14.46-3.65H573.2v50.59h14.46c5.46,0,9.64-0.74,12.53-2.2c2.89-1.47,4.8-3.31,5.71-5.51
			c0.92-2.2,1.38-4.77,1.38-7.71c0-2.8-0.77-5.23-2.31-7.3C603.43,1011,601.03,1009.55,597.77,1008.73z M580.77,991.72h6.2
			c6.24,0,9.36,2.18,9.36,6.54c0,2.43-0.69,4.44-2.07,6.02c-1.38,1.58-3.69,2.37-6.95,2.37h-6.54V991.72z M597.12,1026.79
			c-1.45,1.68-4.26,2.51-8.43,2.51h-7.92v-16.52h8.54c3.35,0,5.85,0.66,7.51,2c1.65,1.33,2.48,3.21,2.48,5.64
			C599.29,1023,598.56,1025.12,597.12,1026.79z"/>
		<rect x="639.51" y="1008" class="st0" width="139.73" height="5.16"/>
		<rect x="302.48" y="1008" class="st0" width="139.73" height="5.16"/>
	</g>
</g>
</svg>
