<svg width="70" height="70" viewBox="0 0 70 70" fill="none" xmlns="http://www.w3.org/2000/svg">
<circle opacity="0.5" cx="53.5542" cy="52.7108" r="14.759" fill="white"/>
<path d="M62.0519 52.6156C61.9139 51.9617 61.232 51.4407 60.5041 51.4305C59.5412 51.4177 58.586 51.4203 57.5261 51.4254H57.3345C56.954 51.4254 56.5734 51.4279 56.1928 51.4279H54.6323L54.5761 48.7385C54.5531 47.6122 54.5301 46.5216 54.5021 45.4284C54.4842 44.7056 54.2007 44.2791 53.5596 44.0007C52.9236 43.7249 52.4103 43.8373 51.8458 44.3762C51.547 44.6622 51.404 45.0275 51.3989 45.5306C51.381 46.9609 51.3631 48.358 51.3657 49.7448C51.3657 49.8138 51.3631 49.8802 51.358 49.944V51.4535H45.2002C44.4621 51.5607 43.8874 52.1763 43.8567 52.9374C43.8235 53.77 44.4467 54.4851 45.2513 54.5286C46.3827 54.5924 47.5499 54.5975 48.6814 54.6026C49.0338 54.6026 49.3863 54.6052 49.7387 54.6077H49.7975C49.8537 54.6077 49.9124 54.6103 49.9686 54.6154H51.358V55.7903C51.3861 55.9384 51.404 56.1019 51.404 56.2858C51.404 56.7225 51.4014 57.1592 51.3963 57.5934C51.3887 58.564 51.3835 59.5677 51.4065 60.551C51.4244 61.3172 51.7845 61.8 52.5354 62.0681C52.8956 62.1984 53.391 62.2699 54.05 61.6825C54.3079 61.4526 54.548 61.1053 54.571 60.1271C54.5889 59.3174 54.5889 58.4848 54.5889 57.6803V57.6088C54.5889 57.2027 54.5889 56.7991 54.5889 56.393C54.5889 56.2372 54.6017 56.0916 54.6144 55.9435L54.7038 54.6231H56.2286C56.3946 54.6282 56.5479 54.6282 56.7011 54.6231C56.8416 54.6179 56.9795 54.6103 57.12 54.6026C57.36 54.5873 57.5797 54.5771 57.7968 54.572C58.1365 54.5669 58.4762 54.5694 58.8159 54.572C59.4518 54.5745 60.052 54.5796 60.6395 54.5337C61.1222 54.4954 61.5359 54.2783 61.799 53.9258C62.0672 53.5657 62.1617 53.1008 62.057 52.6181L62.0519 52.6156Z" fill="#FF0000"/>
<path d="M40.133 64.936C40.407 64.936 41.0481 64.936 41.6246 65.4589C43.4679 67.1305 45.5179 68.3514 47.7205 69.0829L48.0075 69.1782C48.478 69.3353 48.9666 69.5002 49.4397 69.6315C49.5095 69.6521 49.6491 69.665 49.7732 69.6753C49.9257 69.6908 50.0989 69.7062 50.2876 69.7423C52.6686 70.1853 55.1401 70.0565 57.6374 69.3611C60.9697 68.4312 63.7928 66.618 66.029 63.9727C68.26 61.3352 69.5629 58.2753 69.9068 54.8806C70.1291 52.6732 69.9533 50.574 69.3846 48.6371C68.8649 46.8702 68.1152 45.2578 67.1561 43.8412C66.4116 42.7439 65.6283 41.8141 64.757 41.0002C64.5011 40.7606 64.0616 40.2584 63.997 39.5758C63.922 38.7902 63.8884 38.0098 63.8548 37.2526L63.8419 36.9461C63.8109 36.2274 63.7824 35.5088 63.754 34.7902C63.7204 33.9067 63.6842 33.0233 63.6454 32.1398C63.604 31.2461 63.5575 30.3523 63.511 29.4585C63.4257 27.8024 63.3352 26.105 63.2861 24.4282C63.1982 21.5486 62.7949 19.2434 62.0116 17.1751C61.1817 14.9832 60.0106 12.9896 58.5267 11.2536C57.3375 9.86013 55.9906 8.67274 54.5274 7.72231C51.5415 5.78024 48.3358 4.68558 45.0035 4.46407C44.2434 4.41255 43.6566 3.96181 43.4317 3.2535C43.2559 2.69457 43.0956 2.19231 42.9146 1.68748C42.5579 0.688112 41.6401 0.0390387 40.5802 0.036463C39.7064 0.0338873 38.8326 0.0287359 37.9588 0.0210089H37.783C36.1414 0.0107061 34.4972 0.000403393 32.8556 0.000403393C31.4596 -0.00217229 30.0429 0.00813045 28.6702 0.0158575L27.8739 0.0210089C27.0466 0.0261603 26.2168 0.0313116 25.3895 0.036463C25.1413 0.036463 24.9009 0.036463 24.6553 0.0313116C24.1874 0.0261603 23.7557 0.0184332 23.3395 0.0441901C22.2769 0.111158 21.6281 0.520692 21.2377 1.37067C21.0541 1.77248 20.9094 2.22065 20.7568 2.69457C20.7129 2.83366 20.6664 2.97275 20.6224 3.10926C20.3458 3.94636 19.7202 4.43058 18.8593 4.4718C17.6287 4.53361 16.3077 4.78345 14.8212 5.2342C10.8193 6.4525 7.51541 8.68304 5.00001 11.8666C3.28602 14.0353 2.07614 16.4848 1.39623 19.1506C0.954161 20.8866 0.737004 22.4939 0.731833 24.065C0.726663 25.3297 0.654277 26.5969 0.581891 27.823C0.548284 28.4154 0.512091 29.0078 0.486239 29.5976C0.424194 30.9859 0.362149 32.3459 0.320785 33.7136C0.307859 34.1308 0.263911 34.5198 0.219962 34.8984C0.191525 35.1431 0.165673 35.3697 0.150162 35.5964C0.0726057 36.6524 0.0493389 37.7419 0.026072 38.798C0.0209016 39.089 0.013146 39.3801 0.00539039 39.6711C-0.0178765 40.6138 0.0234868 41.1084 0.344052 41.5488C0.806804 42.1876 1.36262 42.5224 2.09941 42.5997C2.45617 42.6357 2.84653 42.6306 3.26275 42.6229H3.34806C3.51093 42.6177 3.67638 42.6151 3.83925 42.6177L6.16852 42.6229C7.35513 42.6229 8.54432 42.6254 9.73352 42.6306C10.0903 42.6306 10.6306 42.6332 11.0701 43.0813C11.507 43.5244 11.4966 44.0524 11.4915 44.4027L11.4811 45.008C11.4604 46.3911 11.4372 47.8232 11.4268 49.2269C11.4191 50.1877 11.4217 51.1484 11.4217 52.1091V52.1658H11.4708V55.9752C11.4708 58.1182 11.4708 60.2612 11.4708 62.4041C11.4708 63.1125 11.6621 63.6533 12.0705 64.1067C12.5721 64.663 13.2261 64.9257 14.1361 64.9283C17.5176 64.9386 20.9016 64.936 24.2856 64.936H40.0838H40.1355H40.133ZM25.4567 3.24577H39.0239L39.6056 5.07451L38.8972 5.6257C38.8559 5.65661 38.8171 5.69009 38.7757 5.72358C38.6465 5.82918 38.4888 5.96054 38.2975 6.07902C37.814 6.3778 37.328 6.67401 36.8446 6.97021L36.7722 7.014C36.1492 7.3952 35.5261 7.77383 34.9057 8.16018C33.9336 8.76546 32.9435 9.07455 31.9663 9.07455C30.9891 9.07455 30.0093 8.76546 29.076 8.15245C28.1531 7.54974 27.2147 6.95218 26.3073 6.37523C26.2633 6.3469 26.2142 6.32371 26.1677 6.30053C26.0126 6.22069 25.8445 6.13826 25.6713 6.01463C25.449 5.86009 25.2939 5.68237 25.1931 5.56389C25.1672 5.53298 25.1491 5.51237 25.131 5.49434L24.3968 4.72421L25.4542 3.23804L25.4567 3.24577ZM39.453 52.1606C39.9959 45.0904 45.7946 39.6531 52.9401 39.5114C54.7678 39.4702 56.6524 39.8386 58.3948 40.5726C60.7112 41.5488 62.7225 43.1251 64.2141 45.1316C64.969 46.1464 65.5662 47.2462 65.9902 48.4001C66.3961 49.5025 66.6572 50.6796 66.7606 51.8928C66.9002 53.5257 66.7502 55.2231 66.3237 56.802C65.0285 61.6108 60.3622 66.7879 53.1779 66.7879C52.3558 66.7879 51.5156 66.7158 50.6754 66.5742C43.8505 65.4228 38.9231 59.0918 39.453 52.1632V52.1606Z" fill="white"/>
</svg>
