<?xml version="1.0" encoding="utf-8"?>
<!-- Generator: Adobe Illustrator 26.0.1, SVG Export Plug-In . SVG Version: 6.00 Build 0)  -->
<svg version="1.1" id="Layer_1" xmlns="http://www.w3.org/2000/svg" xmlns:xlink="http://www.w3.org/1999/xlink" x="0px" y="0px"
	 viewBox="0 0 1080 1080" style="enable-background:new 0 0 1080 1080;" xml:space="preserve">
<style type="text/css">
	.st0{fill:#FFFFFF;}
</style>
<path class="st0" d="M931.6,817.4c55.7-78.4,88.6-174.1,88.6-277.4s-32.9-199-88.6-277.4v-27.8h-21.1C822.3,128,689,59.8,540,59.8
	s-282.3,68.2-370.4,175h-21.1v27.8C92.7,341,59.8,436.7,59.8,540s32.9,199,88.6,277.4v200.6h346.1c15,1.4,30.1,2.2,45.4,2.2
	s30.5-0.8,45.4-2.2h346.1L931.6,817.4L931.6,817.4z M992.5,540c0,82.4-22.3,159.7-60.9,226.3V313.7
	C970.2,380.3,992.5,457.6,992.5,540z M183.2,262.2h4.8l312.3,172.5H175.8V271.9C178.2,268.6,180.7,265.4,183.2,262.2z M904.2,271.9
	v162.8H575.5l312.3-172.5h9C899.3,265.4,901.8,268.6,904.2,271.9z M551.3,417.3V262.2h280.8L551.3,417.3z M524.4,417.3L243.6,262.2
	h280.8V417.3z M175.8,461.5h340.2l-163.6,490c-70.3-32.2-131.1-81.8-176.5-143.5L175.8,461.5L175.8,461.5z M524.4,521v469.6h-24.7
	c-42.9-3.8-84-13.6-122.6-28.5L524.4,521z M551.3,990.6V521l147.8,442.5c-37.5,14.1-77.4,23.4-118.8,27.1L551.3,990.6L551.3,990.6z
	 M724,953.2L559.8,461.5h344.4v346.6C858,870.8,795.9,921.1,724,953.2z M540,87.5c132,0,251,56.8,333.8,147.3H206.2
	C289,144.4,408,87.5,540,87.5z M87.5,540c0-82.4,22.3-159.7,60.9-226.4v452.7C109.8,699.7,87.5,622.4,87.5,540z M175.8,990.6V852.3
	c52.9,61.5,120.9,109.7,198.4,138.3H175.8z M705.8,990.6c77.5-28.6,145.5-76.7,198.4-138.3v138.3H705.8z"/>
</svg>
