<svg width="106" height="105" viewBox="0 0 106 105" fill="none" xmlns="http://www.w3.org/2000/svg">
<path d="M96.2227 82.8396C102.37 74.2718 106 63.8062 106 52.509C106 41.2119 102.37 30.7463 96.2227 22.1785V19.1418H93.8878C84.1652 7.46514 69.4445 0 53.0091 0C36.5737 0 21.853 7.46514 12.1122 19.1418H9.77732V22.1785C3.63001 30.7463 0 41.2119 0 52.509C0 63.8062 3.63001 74.2718 9.77732 82.8396V104.765H47.9745C49.6345 104.928 51.2944 105 52.9909 105C54.6873 105 56.3473 104.91 58.0072 104.765H96.2044V82.8396H96.2227ZM102.954 52.509C102.954 61.5287 100.491 69.9699 96.2227 77.2543V27.7638C100.491 35.0482 102.954 43.5075 102.954 52.509ZM13.6262 22.1243H14.1552L48.613 40.995H12.8054V23.1907C13.079 22.8292 13.3526 22.4858 13.6262 22.1243ZM93.1946 23.1907V40.995H56.9128L91.3705 22.1243H92.3738C92.6474 22.4677 92.921 22.8292 93.1946 23.1907ZM54.2495 39.0971V22.1243H85.2414L54.2495 39.0971ZM51.2762 39.0971L20.2843 22.1243H51.2762V39.0971ZM12.8054 43.9413H50.3459L32.287 97.5349C24.5163 94.0102 17.8217 88.5875 12.8054 81.8454V43.9413ZM51.2762 50.4484V101.801H48.5582C43.8338 101.385 39.2917 100.318 35.0232 98.6736L51.2762 50.4484ZM54.2495 101.801V50.4484L70.5572 98.8363C66.4165 100.391 62.0203 101.403 57.4417 101.801H54.2495ZM73.3117 97.7156L55.1981 43.9413H93.2129V81.8454C88.1053 88.696 81.2648 94.209 73.3117 97.7156ZM53.0091 3.01859C67.5839 3.01859 80.6994 9.23653 89.8382 19.1238H16.1618C25.3006 9.23653 38.4344 3.01859 53.0091 3.01859ZM3.06453 52.509C3.06453 43.4894 5.5271 35.0482 9.79556 27.7638V77.2723C5.5271 69.988 3.06453 61.5287 3.06453 52.5271V52.509ZM12.8054 101.783V86.6535C18.6426 93.3775 26.1397 98.6375 34.6949 101.783H12.8054ZM71.3051 101.783C79.8603 98.6555 87.3574 93.3956 93.1946 86.6535V101.783H71.3051Z" fill="white"/>
</svg>
