<svg width="1440" height="827" viewBox="0 0 1440 827" fill="none" xmlns="http://www.w3.org/2000/svg">
<path opacity="0.1" d="M1454 0H-14V827H1454V0Z" fill="url(#paint0_radial_128_206)"/>
<g opacity="0.5">
<path opacity="0.4" d="M1012.85 620.868C1054.52 562.254 1079.11 490.72 1079.11 413.506C1079.11 336.292 1054.52 264.758 1012.85 206.144V185.362H997.052C931.135 105.528 831.417 54.5433 720.006 54.5433C608.595 54.5433 508.877 105.516 442.96 185.362H427.157V206.144C385.492 264.758 360.898 336.292 360.898 413.518C360.898 490.744 385.492 562.266 427.157 620.881V770.823H686.023C697.217 771.884 708.544 772.481 720.006 772.481C731.468 772.481 742.796 771.884 753.989 770.823H1012.85V620.881V620.868ZM1058.42 413.506C1058.42 475.131 1041.77 532.904 1012.85 582.719V244.293C1041.78 294.108 1058.42 351.881 1058.42 413.506ZM453.178 205.79H456.738L690.303 334.744H447.605V213.054C449.422 210.592 451.312 208.191 453.19 205.79H453.178ZM992.407 213.067V334.756H746.514L980.079 205.802H986.834C988.712 208.216 990.602 210.617 992.419 213.079L992.407 213.067ZM728.456 321.763V205.802H938.487L728.456 321.763ZM708.349 321.763L498.318 205.802H708.349V321.763ZM447.593 354.855H702.009L579.636 721.204C527.033 697.132 481.613 660.018 447.605 613.958V354.855H447.593ZM708.349 399.319V750.383H689.913C657.856 747.543 627.092 740.218 598.206 729.041L708.349 399.319ZM728.456 750.383V399.319L838.977 730.15C810.92 740.718 781.095 747.641 750.087 750.383H728.456ZM857.596 722.447L734.797 354.843H992.394V613.945C957.79 660.81 911.369 698.411 857.584 722.447H857.596ZM720.006 75.215C818.736 75.215 907.711 117.716 969.629 185.35H470.383C532.301 117.716 621.276 75.215 720.006 75.215ZM381.59 413.506C381.59 351.881 398.247 294.108 427.157 244.293V582.731C398.234 532.916 381.59 475.143 381.59 413.518V413.506ZM447.605 750.383V647.025C487.136 693.036 538.02 729.005 595.975 750.383H447.605ZM844.037 750.383C901.98 728.992 952.876 693.024 992.407 647.025V750.383H844.037Z" fill="white"/>
</g>
<defs>
<radialGradient id="paint0_radial_128_206" cx="0" cy="0" r="1" gradientUnits="userSpaceOnUse" gradientTransform="translate(791.301 -390.978) scale(1135.46 953.402)">
<stop stop-color="#4F4C4D"/>
<stop offset="0.03" stop-color="#494647"/>
<stop offset="0.16" stop-color="#383435"/>
<stop offset="0.32" stop-color="#2C2829"/>
<stop offset="0.52" stop-color="#252122"/>
<stop offset="1" stop-color="#231F20"/>
</radialGradient>
</defs>
</svg>
