<svg width="18" height="18" viewBox="0 0 18 18" fill="none" xmlns="http://www.w3.org/2000/svg">
<path d="M18 9.02231C17.9956 13.9902 13.9485 18.0168 8.97501 18.0001C4.04703 17.9834 0.00444724 13.9313 3.61812e-06 9.00564C-0.00444 4.0622 4.0848 -0.0210348 9.01945 8.15358e-05C14.0063 0.0211979 18.0044 4.03774 18 9.02231ZM8.99167 16.6831C13.2664 16.6886 16.7014 13.2778 16.7136 9.01564C16.7247 4.76015 13.2831 1.31263 9.02611 1.31596C4.76468 1.3193 1.31643 4.72014 1.30976 8.92673C1.3031 13.2467 4.70024 16.6764 8.99167 16.6831Z" fill="white"/>
<path d="M6.97754 12.8145C7.19417 11.9676 7.44745 10.964 7.70629 9.96269C7.82627 9.49813 7.9518 9.03468 8.08289 8.57235C8.20176 8.15335 8.04401 7.9722 7.61742 8.00443C7.52522 8.0111 7.4219 8.03888 7.34303 8.00887C7.23416 7.96775 7.14417 7.87995 7.0453 7.81216C7.13195 7.70991 7.2075 7.53209 7.30637 7.51764C8.20398 7.38983 9.1027 7.27536 10.0048 7.18867C10.4225 7.14866 10.3747 7.47319 10.3147 7.72769C10.1392 8.46454 9.94366 9.19583 9.75258 9.92935C9.55706 10.6806 9.33599 11.4264 9.1738 12.1843C9.12714 12.4011 9.16936 12.7801 9.30155 12.8545C9.47041 12.9501 9.78258 12.8467 10.0114 12.7656C10.1547 12.7156 10.2447 12.5278 10.3836 12.4444C10.4913 12.3788 10.6369 12.3788 10.7668 12.3488C10.7824 12.4855 10.8446 12.6389 10.8046 12.7578C10.5247 13.598 9.28378 14.4727 8.39061 14.4794C7.53521 14.486 6.94088 13.8559 6.98087 12.8156L6.97754 12.8145Z" fill="white"/>
<path d="M11.0146 4.82475C11.0102 5.55048 10.4714 6.07172 9.74043 6.05727C9.02834 6.04394 8.47622 5.47713 8.49178 4.77473C8.50733 4.08456 9.10722 3.50553 9.78931 3.5222C10.5014 3.53998 11.0191 4.09012 11.0146 4.82363V4.82475Z" fill="white"/>
</svg>
